<svg width="100.000000" height="100.000000" viewBox="0 0 100 100" fill="none" xmlns="http://www.w3.org/2000/svg" xmlns:xlink="http://www.w3.org/1999/xlink">
	<desc>
			Created with Pixso.
	</desc>
	<defs></defs>
	<path id="Vector" d="M76.2682 71.6166L22.6848 71.6166C18.5518 71.6166 14.5882 69.9749 11.6657 67.0524C8.74329 64.1299 7.10147 60.1663 7.10147 56.0333L7.10147 26.8666C7.07947 24.8042 7.466 22.7579 8.23877 20.8456C9.01151 18.9333 10.1552 17.193 11.6039 15.725C13.0526 14.257 14.7776 13.0902 16.6795 12.2921C18.5813 11.494 20.6223 11.0803 22.6848 11.075L76.2682 11.075C80.3977 11.0859 84.355 12.7313 87.2751 15.6514C90.1951 18.5714 91.8405 22.5287 91.8515 26.6583L91.8515 56.0333C91.8515 58.0797 91.4484 60.1061 90.6653 61.9968C89.8821 63.8875 88.7343 65.6053 87.2872 67.0524C85.8402 68.4994 84.1223 69.6472 82.2316 70.4304C80.341 71.2135 78.3146 71.6166 76.2682 71.6166ZM22.6848 15.2416C19.6569 15.2416 16.7531 16.4445 14.612 18.5854C12.471 20.7266 11.2681 23.6304 11.2681 26.6583L11.2681 56.0333C11.2681 59.0612 12.471 61.9651 14.612 64.1061C16.7531 66.2471 19.6569 67.45 22.6848 67.45L76.2682 67.45C79.2961 67.45 82.1999 66.2471 84.3409 64.1061C86.482 61.9651 87.6848 59.0612 87.6848 56.0333L87.6848 26.8666C87.7125 25.35 87.4377 23.8429 86.8763 22.4336C86.315 21.0244 85.4784 19.7411 84.4155 18.6588C83.3526 17.5765 82.0847 16.7169 80.6858 16.1301C79.2869 15.5435 77.7851 15.2413 76.2682 15.2416L22.6848 15.2416Z" fill="#FF4343" fill-opacity="1.000000" fill-rule="nonzero"></path>
	<path id="Vector" d="M89.7673 55.7833L9.18399 55.7833C8.6348 55.7727 8.11105 55.5498 7.72266 55.1614C7.33423 54.7729 7.11133 54.2493 7.10065 53.7001C7.10065 53.1475 7.32013 52.6176 7.71085 52.2269C8.10153 51.8362 8.63144 51.6167 9.18399 51.6167L89.7673 51.6167C90.3199 51.6167 90.8497 51.8362 91.2404 52.2269C91.6312 52.6176 91.8506 53.1475 91.8506 53.7001C91.8506 54.2526 91.6312 54.7825 91.2404 55.1732C90.8497 55.5638 90.3199 55.7833 89.7673 55.7833Z" fill="#FF4343" fill-opacity="1.000000" fill-rule="nonzero"></path>
	<path id="Vector" d="M49.4206 87.7416C48.8681 87.7416 48.3382 87.5221 47.9475 87.1315C47.5568 86.7407 47.3373 86.2108 47.3373 85.6583L47.3373 69.5333C47.3373 68.9807 47.5568 68.4508 47.9475 68.0602C48.3382 67.6694 48.8681 67.45 49.4206 67.45C49.9731 67.45 50.5031 67.6694 50.8938 68.0602C51.2845 68.4508 51.5039 68.9807 51.5039 69.5333L51.5039 85.6583C51.5039 86.2108 51.2845 86.7407 50.8938 87.1315C50.5031 87.5221 49.9731 87.7416 49.4206 87.7416Z" fill="#FF4343" fill-opacity="1.000000" fill-rule="nonzero"></path>
	<path id="Vector" d="M73.4936 87.7418L25.1603 87.7418C24.6078 87.7418 24.0779 87.5223 23.6872 87.1317C23.2964 86.741 23.077 86.2111 23.077 85.6586C23.077 85.106 23.2964 84.576 23.6872 84.1854C24.0779 83.7947 24.6078 83.5752 25.1603 83.5752L73.4936 83.5752C74.0462 83.5752 74.5761 83.7947 74.9668 84.1854C75.3575 84.576 75.577 85.106 75.577 85.6586C75.577 86.2111 75.3575 86.741 74.9668 87.1317C74.5761 87.5223 74.0462 87.7418 73.4936 87.7418Z" fill="#FF4343" fill-opacity="1.000000" fill-rule="nonzero"></path>
</svg>
