<svg width="100.000000" height="100.000000" viewBox="0 0 100 100" fill="none" xmlns="http://www.w3.org/2000/svg" xmlns:xlink="http://www.w3.org/1999/xlink">
	<desc>
			Created with Pixso.
	</desc>
	<defs></defs>
	<path id="Vector" d="M29.4916 87.4082C27.991 87.3711 26.5374 86.8768 25.325 85.9916C24.0461 85.0724 23.0994 83.7638 22.6262 82.2616C22.153 80.7594 22.1789 79.1445 22.7 77.6582L27.95 61.4916C28.1552 60.8538 28.1528 60.1672 27.9432 59.5309C27.7336 58.8944 27.3275 58.3409 26.7833 57.95L13.0333 47.95C11.7964 47.0449 10.8741 45.7753 10.396 44.3191C9.91785 42.8629 9.90802 41.2936 10.3678 39.8315C10.8275 38.3695 11.7338 37.0883 12.9592 36.1678C14.1847 35.2474 15.6677 34.7341 17.2 34.7L34.2 34.7C34.8393 34.7146 35.4681 34.5354 36.0035 34.1858C36.539 33.8362 36.9561 33.3328 37.2 32.7416L42.45 16.5332C42.8942 15.0382 43.814 13.7289 45.0698 12.804C46.3256 11.879 47.8488 11.389 49.4083 11.4082C50.9557 11.3904 52.4677 11.871 53.7208 12.7789C54.9739 13.6869 55.9016 14.974 56.3666 16.45L61.6166 32.7416C61.8317 33.3683 62.2356 33.9131 62.7728 34.301C63.3099 34.689 63.9541 34.9011 64.6166 34.9082L81.6583 34.9082C83.1906 34.9424 84.6736 35.4558 85.899 36.3762C87.1245 37.2966 88.0308 38.5779 88.4905 40.0399C88.9503 41.502 88.9404 43.0713 88.4623 44.5275C87.9843 45.9835 87.0619 47.2533 85.825 48.1582L72.075 58.1582C71.5308 58.5492 71.1248 59.1028 70.9151 59.7391C70.7054 60.3756 70.7031 61.0621 70.9083 61.7L76.2 77.9082C76.71 79.3994 76.726 81.0153 76.2456 82.5162C75.7653 84.0172 74.8142 85.3235 73.5333 86.2416C72.2906 87.1779 70.7768 87.6843 69.2208 87.6843C67.6648 87.6843 66.1511 87.1779 64.9083 86.2416L51.1583 76.2416C50.6162 75.8577 49.9684 75.6516 49.3041 75.6516C48.6399 75.6516 47.9921 75.8577 47.45 76.2416L33.6583 86.2416C32.4228 87.0505 30.9676 87.4579 29.4916 87.4082ZM17.1583 38.9916C16.4896 38.9725 15.8333 39.1746 15.2909 39.5662C14.7486 39.9579 14.3505 40.5175 14.1583 41.1582C13.9421 41.7913 13.9347 42.4769 14.1372 43.1145C14.3397 43.752 14.7415 44.3077 15.2833 44.7L29.075 54.7C30.3507 55.6224 31.2978 56.929 31.7776 58.4285C32.2574 59.9279 32.2448 61.5415 31.7416 63.0332L26.4916 79.075C26.2686 79.7073 26.2576 80.3951 26.4607 81.0343C26.6637 81.6733 27.0695 82.2289 27.6166 82.6166C28.1483 83.0254 28.8002 83.2471 29.4708 83.2471C30.1415 83.2471 30.7933 83.0254 31.325 82.6166L45.2416 72.6166C46.486 71.7028 47.9895 71.2098 49.5333 71.2098C51.0771 71.2098 52.5807 71.7028 53.825 72.6166L67.4916 82.7416C68.0233 83.1504 68.6752 83.3721 69.3458 83.3721C70.0165 83.3721 70.6683 83.1504 71.2 82.7416C71.7471 82.3539 72.153 81.7983 72.356 81.1593C72.559 80.5201 72.5481 79.8323 72.325 79.2L67.075 63.0332C66.5718 61.5415 66.5592 59.9279 67.0391 58.4285C67.5189 56.929 68.4659 55.6224 69.7416 54.7L83.4916 44.7C84.0225 44.3057 84.4165 43.7551 84.6186 43.1256C84.8207 42.496 84.8206 41.819 84.6184 41.1895C84.4163 40.5599 84.0221 40.0095 83.4912 39.6154C82.9603 39.2212 82.3194 39.0031 81.6583 38.9916L64.6166 38.9916C63.0882 38.9725 61.6039 38.4764 60.3712 37.5725C59.1385 36.6686 58.2192 35.402 57.7416 33.95L52.4083 17.7416C52.2161 17.1008 51.8181 16.5413 51.2758 16.1495C50.7334 15.7578 50.077 15.5559 49.4083 15.575C48.7396 15.5559 48.0833 15.7578 47.5409 16.1495C46.9986 16.5413 46.6005 17.1008 46.4083 17.7416L41.075 33.95C40.5974 35.402 39.678 36.6686 38.4454 37.5725C37.2128 38.4764 35.7285 38.9725 34.2 38.9916L17.1583 38.9916Z" fill="#FF4343" fill-opacity="1.000000" fill-rule="nonzero"></path>
</svg>
