<svg width="100" height="101.389" fill="none" xmlns="http://www.w3.org/2000/svg"><path id="Vector" d="M49.3 90.228c-10.498 0-20.567-4.229-27.99-11.755-7.423-7.526-11.594-17.734-11.594-28.379 0-10.643 4.17-20.851 11.594-28.378C28.733 14.19 38.802 9.961 49.3 9.961c.552 0 1.082.223 1.473.62.39.395.61.932.61 1.493 0 .56-.22 1.097-.61 1.493-.39.396-.92.619-1.473.619a35.03 35.03 0 0 0-16.77 4.166 35.59 35.59 0 0 0-12.833 11.71 36.226 36.226 0 0 0-5.85 16.47 36.362 36.362 0 0 0 2.527 17.316 35.876 35.876 0 0 0 10.301 14.048 35.205 35.205 0 0 0 15.628 7.44 34.95 34.95 0 0 0 17.24-.933A35.33 35.33 0 0 0 74.3 75.315a2.06 2.06 0 0 1 3.054-.14 2.115 2.115 0 0 1 .62 1.57 2.137 2.137 0 0 1-.716 1.527 39.191 39.191 0 0 1-12.792 8.831A38.748 38.748 0 0 1 49.3 90.228Z" fill="#FF4343" fill-opacity="1" fill-rule="nonzero"/><path id="Vector" d="M48.05 63.613a1.932 1.932 0 0 1-1.459-.591L29.925 46.123a2.113 2.113 0 0 1-.617-1.5 2.14 2.14 0 0 1 .617-1.499 2.11 2.11 0 0 1 1.479-.608 2.11 2.11 0 0 1 1.479.608l15.167 15.42 33.958-34.43a2.078 2.078 0 0 1 1.48-.622c.554 0 1.086.224 1.478.622.393.397.613.937.613 1.5 0 .562-.22 1.101-.613 1.499L49.55 63.022a2.077 2.077 0 0 1-1.5.591Z" fill="#FF4343" fill-opacity="1" fill-rule="nonzero"/></svg>