<svg width="183.862" height="25.746" fill="none" xmlns="http://www.w3.org/2000/svg"><path id="ACTIVEBOX" d="M44.003 21.55c.852-1.342 1.318-2.884 1.397-4.627h-5.945c-.046 1.422-.432 2.46-1.159 3.113-.727.653-1.777.98-3.151.98-1.624 0-2.772-.573-3.442-1.72-.658-1.146-.988-3.055-.988-5.727V11.8c.035-2.466.398-4.26 1.09-5.384q.39-.633.95-1.028.928-.658 2.322-.658c1.465 0 2.555.333 3.27.998.716.665 1.096 1.76 1.142 3.285h5.962q-.285-3.206-1.94-5.356h-.001v-.001q-.52-.676-1.176-1.247-.288-.253-.595-.479Q39.117 0 35.077 0q-2.582 0-4.656 1.027-.444.22-.864.486-.617.388-1.16.86-1.556 1.354-2.503 3.406-1.26 2.751-1.26 6.432v1.238q0 5.865 2.81 9.08.863.988 1.922 1.672 2.39 1.545 5.779 1.545c1.976 0 3.73-.367 5.264-1.101 1.544-.734 2.742-1.766 3.594-3.096Zm-27.99-.826H7.82l-1.43 4.678H0L9.097.362h5.622l9.165 25.04h-6.422l-1.448-4.678ZM67.19 5.022h-7.445v20.38h-5.98V5.022h-7.308V.362H67.19v4.66Zm2.947 20.38h5.962V.362h-5.962v25.04Zm19.744-6.81L94.82.361h6.679l-8.348 25.04H86.61L78.33.362h6.627l4.923 18.23Zm19.421-3.801h9.404V10.3h-9.404V5.023h11.141V.362h-17.12v25.04h17.086v-4.644h-11.107v-5.967ZM9.251 16.063h5.332l-2.675-8.685-2.658 8.685Z" fill="#656980" fill-opacity="1" fill-rule="evenodd"/><path id="ACTIVEBOX" d="M162.074 14.739c0 2.167-.386 4.087-1.159 5.761-.761 1.663-1.851 2.953-3.271 3.87q-.439.28-.906.503-1.796.855-4 .855-2.42 0-4.306-1.003-1.38-.734-2.474-2.006-.091-.106-.179-.214-2.411-2.975-2.411-7.904V10.99c0-2.156.381-4.07 1.142-5.745q.902-1.955 2.393-3.212.424-.357.895-.657.545-.35 1.13-.61Q150.646 0 152.704 0q2.159 0 3.927.832.505.238.979.544.487.308.924.677 1.486 1.255 2.381 3.21 1.159 2.51 1.159 5.727v3.749Zm-38.62 10.645V.345h6.524q4.004 0 6.048 1.651.573.454.987 1.025 1.074 1.48 1.074 3.739 0 2.097-.974 3.534-.08.119-.167.232-.307.403-.682.727-1.018.88-2.538 1.182 1.214.16 2.22.705.941.51 1.698 1.359.899.996 1.282 2.16.286.868.286 1.83 0 2.27-1.038 3.864-.425.653-1.024 1.192c-1.362 1.227-3.265 1.84-5.707 1.84h-7.989ZM182.38.345l-8.007 11.54-8.006-11.54h-1.159l8.586 12.262-8.909 12.778h1.107l8.381-12.055 8.348 12.055h1.141l-8.909-12.778L183.539.344h-1.159Zm-21.226 10.611c0-3.027-.761-5.452-2.283-7.275-1.522-1.834-3.578-2.751-6.167-2.751q-2.305 0-4.05.989-1.156.655-2.066 1.745-2.283 2.718-2.283 7.413v3.663c0 1.995.341 3.76 1.023 5.297q.838 1.845 2.242 3.008.336.278.705.517.291.19.598.35 1.7.889 3.865.889 2.418 0 4.209-1.06 1.086-.643 1.941-1.675c1.51-1.823 2.266-4.31 2.266-7.464v-3.646Zm-36.78 1.135h5.945q3.39 0 5.111-1.307.357-.274.64-.611 1.08-1.287 1.08-3.482 0-1.96-.941-3.211-1.62-2.152-6.026-2.206h-5.809V12.09Zm0 .929v11.437h7.172c2.101 0 3.748-.522 4.94-1.565q.52-.456.89-1.01.916-1.374.916-3.358 0-1.273-.5-2.304-.432-.89-1.238-1.6-.131-.117-.269-.226-1.688-1.326-4.382-1.374h-7.529Z" fill="#FFF" fill-opacity="1" fill-rule="evenodd"/></svg>