<svg width="18.000000" height="18.000000" viewBox="0 0 18 18" fill="none" xmlns="http://www.w3.org/2000/svg" xmlns:xlink="http://www.w3.org/1999/xlink">
	<desc>
			Created with Pixso.
	</desc>
	<defs></defs>
	<path id="Vector" d="M17 0L1 0C0.734802 0 0.480408 0.105362 0.292908 0.292892C0.105347 0.480423 0 0.734787 0 1L0 17C0 17.2652 0.105347 17.5196 0.292908 17.7071C0.480408 17.8946 0.734802 18 1 18L17 18C17.2652 18 17.5196 17.8946 17.7071 17.7071C17.8947 17.5196 18 17.2652 18 17L18 1C18 0.734787 17.8947 0.480423 17.7071 0.292892C17.5196 0.105362 17.2652 0 17 0ZM5.33899 15.337L2.66699 15.337L2.66699 6.74699L5.33899 6.74699L5.33899 15.337ZM4.00299 5.57401C3.59247 5.57401 3.19873 5.4109 2.90839 5.12061C2.6181 4.83029 2.45502 4.43655 2.45502 4.026C2.45502 3.61545 2.6181 3.22171 2.90839 2.9314C3.19873 2.6411 3.59247 2.478 4.00299 2.478C4.41357 2.478 4.80731 2.6411 5.0976 2.9314C5.38788 3.22171 5.55103 3.61545 5.55103 4.026C5.55103 4.43655 5.38788 4.83029 5.0976 5.12061C4.80731 5.4109 4.41357 5.57401 4.00299 5.57401ZM15.338 15.337L12.669 15.337L12.669 11.16C12.669 10.164 12.651 8.883 11.281 8.883C9.89099 8.883 9.67999 9.96899 9.67999 11.09L9.67999 15.338L7.013 15.338L7.013 6.748L9.573 6.748L9.573 7.922L9.60999 7.922C9.96503 7.24699 10.837 6.535 12.134 6.535C14.838 6.535 15.337 8.313 15.337 10.627L15.337 15.337L15.338 15.337Z" fill="#C6CBCD" fill-opacity="1.000000" fill-rule="nonzero"></path>
</svg>
