<svg width="100.000000" height="100.000000" viewBox="0 0 100 100" fill="none" xmlns="http://www.w3.org/2000/svg" xmlns:xlink="http://www.w3.org/1999/xlink">
	<desc>
			Created with Pixso.
	</desc>
	<defs/>
	<path id="Vector" d="M67.1083 63.1998L49.65 63.1998C49.0975 63.1998 48.5675 62.9803 48.1768 62.5897C47.7861 62.199 47.5667 61.6691 47.5667 61.1166C47.5667 60.564 47.7861 60.0341 48.1768 59.6434C48.5675 59.2527 49.0975 59.0332 49.65 59.0332L67.1083 59.0332C67.6609 59.0332 68.1908 59.2527 68.5815 59.6434C68.9722 60.0341 69.1917 60.564 69.1917 61.1166C69.1917 61.6691 68.9722 62.199 68.5815 62.5897C68.1908 62.9803 67.6609 63.1998 67.1083 63.1998Z" fill="#FF4343" fill-opacity="1.000000" fill-rule="nonzero"/>
	<path id="Vector" d="M78.8583 61.9082C78.6117 61.9667 78.3548 61.9667 78.1083 61.9082C77.8515 61.8157 77.6159 61.6726 77.4153 61.4874C77.2148 61.3022 77.0535 61.0787 76.9408 60.8301C76.8281 60.5815 76.7665 60.3129 76.7595 60.04C76.7524 59.7671 76.8002 59.4956 76.8999 59.2416L86.8166 32.7416C87.0128 32.2299 87.4028 31.8162 87.9019 31.59C88.401 31.3639 88.9692 31.3434 89.4833 31.5332C89.9989 31.7386 90.4159 32.1342 90.6485 32.6381C90.8811 33.142 90.9114 33.7159 90.7333 34.2416L80.8166 60.6166C80.6486 60.9971 80.3746 61.3213 80.0274 61.5504C79.6801 61.7794 79.2742 61.9037 78.8583 61.9082Z" fill="#FF4343" fill-opacity="1.000000" fill-rule="nonzero"/>
	<path id="Vector" d="M36.3167 62.7001C35.8819 62.7031 35.4576 62.5674 35.1053 62.3126C34.7531 62.0579 34.4914 61.6973 34.3583 61.2833L21.275 21.5333L8.77498 21.5333C8.22245 21.5333 7.69254 21.3138 7.30184 20.9232C6.91114 20.5325 6.69165 20.0026 6.69165 19.4501C6.70232 18.9009 6.92524 18.3771 7.31365 17.9886C7.70206 17.6003 8.22579 17.3773 8.77498 17.3667L22.775 17.3667C23.2067 17.3759 23.6253 17.5164 23.9752 17.7695C24.325 18.0226 24.5895 18.3762 24.7333 18.7833L38.4417 59.9501C38.533 60.207 38.5719 60.4796 38.5561 60.7518C38.5403 61.024 38.4701 61.2904 38.3497 61.5352C38.2293 61.7798 38.0612 61.9978 37.8551 62.1765C37.649 62.3551 37.4093 62.4906 37.15 62.5751C36.8853 62.6794 36.6003 62.7222 36.3167 62.7001Z" fill="#FF4343" fill-opacity="1.000000" fill-rule="nonzero"/>
	<path id="Vector" d="M42.7333 81.45C40.261 81.45 37.8443 80.7168 35.7887 79.3434C33.733 77.9698 32.1309 76.0176 31.1848 73.7335C30.2387 71.4495 29.9911 68.936 30.4735 66.5114C30.9558 64.0865 32.1463 61.8593 33.8944 60.1111C35.6426 58.3629 37.8699 57.1725 40.2947 56.6902C42.7194 56.2079 45.2327 56.4553 47.5168 57.4015C49.8009 58.3475 51.7531 59.9497 53.1267 62.0054C54.5002 64.0609 55.2333 66.4777 55.2333 68.95C55.2333 72.2651 53.9163 75.4446 51.5721 77.7888C49.2279 80.1331 46.0485 81.45 42.7333 81.45ZM42.7333 60.6166C41.0851 60.6166 39.4739 61.1053 38.1035 62.021C36.7331 62.9368 35.665 64.2382 35.0343 65.761C34.4036 67.2837 34.2385 68.9592 34.5601 70.5757C34.8816 72.1923 35.6753 73.6771 36.8407 74.8425C38.0062 76.0079 39.491 76.8016 41.1075 77.1232C42.724 77.4447 44.3996 77.2797 45.9223 76.6489C47.445 76.0182 48.7465 74.9501 49.6622 73.5797C50.5779 72.2094 51.0666 70.5981 51.0666 68.95C51.0666 66.7399 50.1886 64.6202 48.6258 63.0574C47.063 61.4946 44.9434 60.6166 42.7333 60.6166Z" fill="#FF4343" fill-opacity="1.000000" fill-rule="nonzero"/>
	<path id="Vector" d="M74.0249 81.45C71.5526 81.45 69.1359 80.7168 67.0803 79.3434C65.0247 77.9698 63.4225 76.0176 62.4764 73.7335C61.5303 71.4495 61.2828 68.936 61.7651 66.5114C62.2474 64.0865 63.4379 61.8593 65.1861 60.1111C66.9342 58.3629 69.1615 57.1725 71.5863 56.6902C74.011 56.2079 76.5244 56.4553 78.8084 57.4015C81.0925 58.3475 83.0448 59.9497 84.4183 62.0054C85.7918 64.0609 86.5249 66.4777 86.5249 68.95C86.5249 72.2651 85.2079 75.4446 82.8637 77.7888C80.5195 80.1331 77.3401 81.45 74.0249 81.45ZM74.0249 60.6166C72.3767 60.6166 70.7656 61.1053 69.3952 62.021C68.0247 62.9368 66.9566 64.2382 66.3259 65.761C65.6952 67.2837 65.5302 68.9592 65.8517 70.5757C66.1732 72.1923 66.9669 73.6771 68.1324 74.8425C69.2978 76.0079 70.7826 76.8016 72.3992 77.1232C74.0157 77.4447 75.6912 77.2797 77.2139 76.6489C78.7367 76.0182 80.0381 74.9501 80.9538 73.5797C81.8695 72.2094 82.3582 70.5981 82.3582 68.95C82.3582 66.7399 81.4803 64.6202 79.9175 63.0574C78.3547 61.4946 76.235 60.6166 74.0249 60.6166Z" fill="#FF4343" fill-opacity="1.000000" fill-rule="nonzero"/>
</svg>
