<svg width="100.000000" height="100.000000" viewBox="0 0 100 100" fill="none" xmlns="http://www.w3.org/2000/svg" xmlns:xlink="http://www.w3.org/1999/xlink">
	<desc>
			Created with Pixso.
	</desc>
	<defs/>
	<path id="Vector" d="M62.7593 88.1256L25.5927 88.1256C22.0969 88.1146 18.7479 86.7181 16.2799 84.2423C13.8119 81.7665 12.426 78.4132 12.426 74.9174L12.426 37.8756C12.437 34.387 13.8278 31.0444 16.2946 28.5775C18.7614 26.1107 22.1041 24.72 25.5927 24.709L36.7177 24.709C37.2702 24.709 37.8001 24.9285 38.1909 25.3192C38.5815 25.7098 38.801 26.2397 38.801 26.7924C38.801 27.3448 38.5815 27.8748 38.1909 28.2655C37.8001 28.6561 37.2702 28.8756 36.7177 28.8756L25.5927 28.8756C23.2091 28.8866 20.9263 29.8384 19.2408 31.5238C17.5554 33.2092 16.6036 35.4921 16.5927 37.8756L16.5927 74.9174C16.5927 77.3081 17.5396 79.6016 19.2262 81.296C20.9128 82.9905 23.2019 83.948 25.5927 83.959L62.7593 83.959C63.9467 83.959 65.1225 83.7251 66.2195 83.2708C67.3165 82.8164 68.3132 82.1504 69.1528 81.3108C69.9924 80.4712 70.6584 79.4744 71.1128 78.3774C71.5671 77.2804 71.801 76.1047 71.801 74.9174L71.801 67.5006C71.801 66.9481 72.0205 66.4182 72.4112 66.0275C72.8019 65.6368 73.3318 65.4174 73.8843 65.4174C74.4369 65.4174 74.9668 65.6368 75.3575 66.0275C75.7482 66.4182 75.9677 66.9481 75.9677 67.5006L75.9677 74.9174C75.9677 78.4204 74.5761 81.78 72.0991 84.2571C69.622 86.7341 66.2625 88.1256 62.7593 88.1256Z" fill="#FF4343" fill-opacity="1.000000" fill-rule="nonzero"/>
	<path id="Vector" d="M73.7177 39.3756C73.1793 39.3761 72.6616 39.1681 72.2733 38.7952C71.8849 38.4224 71.6559 37.9136 71.6343 37.3756C71.5514 35.8318 71.0627 34.337 70.2177 33.0424C69.5375 31.9667 68.6266 31.0559 67.551 30.3756C66.3 29.5675 64.8687 29.0808 63.3843 28.959C63.1107 28.9482 62.8419 28.8837 62.5932 28.7689C62.3445 28.6542 62.1208 28.4916 61.9351 28.2903C61.7494 28.0891 61.6051 27.8531 61.5106 27.5962C61.4161 27.3391 61.3732 27.0659 61.3843 26.7924C61.3726 26.2646 61.5657 25.7529 61.923 25.3645C62.2803 24.9761 62.7742 24.7412 63.301 24.709C65.6146 24.812 67.8586 25.5312 69.801 26.7924C71.3831 27.7886 72.7214 29.127 73.7177 30.709C74.9787 32.6514 75.6979 34.8954 75.801 37.209C75.8122 37.4827 75.7693 37.7557 75.6748 38.0128C75.5803 38.2699 75.436 38.5057 75.2502 38.707C75.0645 38.9082 74.8409 39.0709 74.5922 39.1855C74.3436 39.3003 74.0747 39.3649 73.801 39.3756L73.7177 39.3756Z" fill="#FF4343" fill-opacity="1.000000" fill-rule="nonzero"/>
	<path id="Vector" d="M54.426 58.5006L44.1343 58.5006C43.5817 58.5006 43.0518 58.2811 42.6611 57.8904C42.2704 57.4996 42.051 56.9697 42.051 56.4172L42.051 45.9172C42.0477 45.3737 42.257 44.8503 42.6343 44.4589L63.4676 23.6256C63.8571 23.2439 64.3806 23.03 64.926 23.03C65.4713 23.03 65.9949 23.2439 66.3843 23.6256L70.0093 27.2506C70.391 27.64 70.6048 28.1636 70.6048 28.7089C70.6048 29.2543 70.391 29.7778 70.0093 30.1672C69.8156 30.3625 69.5852 30.5175 69.3313 30.6233C69.0775 30.729 68.8051 30.7834 68.5301 30.7834C68.2551 30.7834 67.9828 30.729 67.7289 30.6233C67.475 30.5175 67.2446 30.3625 67.051 30.1672L64.926 28.0839L46.0926 46.7922L46.0926 54.3339L53.6343 54.3339L72.5093 35.4172L70.3843 33.2922C70.0026 32.9028 69.7888 32.3793 69.7888 31.8339C69.7888 31.2886 70.0026 30.765 70.3843 30.3756C70.5779 30.1803 70.8083 30.0253 71.0623 29.9196C71.3161 29.8137 71.5884 29.7593 71.8635 29.7593C72.1385 29.7593 72.4108 29.8137 72.6647 29.9196C72.9185 30.0253 73.1489 30.1803 73.3427 30.3756L76.926 33.9589C77.1212 34.1526 77.2762 34.3829 77.382 34.6368C77.4877 34.8907 77.5422 35.1631 77.5422 35.4381C77.5422 35.7131 77.4877 35.9854 77.382 36.2393C77.2762 36.4932 77.1212 36.7235 76.926 36.9172L56.0926 57.7506C55.8845 57.9873 55.628 58.1768 55.3405 58.306C55.053 58.4354 54.7412 58.5017 54.426 58.5006Z" fill="#FF4343" fill-opacity="1.000000" fill-rule="nonzero"/>
	<path id="Vector" d="M75.5927 37.5006C75.0364 37.506 74.4993 37.2971 74.0927 36.9172L70.5094 33.2922C70.1276 32.9028 69.9138 32.3793 69.9138 31.834C69.9138 31.2886 70.1276 30.765 70.5094 30.3756C70.7031 30.1803 70.9335 30.0254 71.1873 29.9196C71.4412 29.8138 71.7135 29.7594 71.9885 29.7594C72.2635 29.7594 72.5359 29.8138 72.7897 29.9196C73.0436 30.0254 73.274 30.1803 73.4677 30.3756L75.5927 32.5006L83.0927 24.959L75.5927 17.459L68.051 24.959L70.176 27.084C70.5577 27.4734 70.7715 27.9969 70.7715 28.5422C70.7715 29.0876 70.5577 29.6112 70.176 30.0006C69.9824 30.1959 69.752 30.3508 69.498 30.4567C69.2442 30.5624 68.9719 30.6168 68.6968 30.6168C68.4218 30.6168 68.1495 30.5624 67.8957 30.4567C67.6418 30.3508 67.4114 30.1959 67.2177 30.0006L63.6343 26.4172C63.4342 26.2312 63.2752 26.0054 63.1675 25.7543C63.0599 25.5031 63.006 25.2322 63.0094 24.959C63.0053 24.6794 63.0587 24.4021 63.1662 24.144C63.2737 23.8861 63.433 23.6528 63.6343 23.459L74.0927 13.0422C74.2864 12.847 74.5168 12.692 74.7707 12.5863C75.0245 12.4805 75.2969 12.426 75.5719 12.426C75.8469 12.426 76.1192 12.4805 76.373 12.5863C76.627 12.692 76.8574 12.847 77.051 13.0422L87.5094 23.459C87.8937 23.8553 88.1087 24.3859 88.1087 24.9381C88.1087 25.4904 87.8937 26.0209 87.5094 26.4172L77.051 36.9172C76.6597 37.2946 76.1363 37.5039 75.5927 37.5006Z" fill="#FF4343" fill-opacity="1.000000" fill-rule="nonzero"/>
</svg>
