<svg width="100.000000" height="101.388916" viewBox="0 0 100 101.389" fill="none" xmlns="http://www.w3.org/2000/svg" xmlns:xlink="http://www.w3.org/1999/xlink">
	<desc>
			Created with Pixso.
	</desc>
	<defs/>
	<path id="Vector" d="M49.2998 90.2277C38.8016 90.2277 28.7334 85.9993 21.3101 78.4729C13.8868 70.9465 9.71643 60.7385 9.71643 50.0945C9.71643 39.4506 13.8868 29.2426 21.3101 21.7162C28.7334 14.1897 38.8016 9.96143 49.2998 9.96143C49.8523 9.96143 50.3822 10.184 50.7729 10.5801C51.1636 10.9762 51.3831 11.5134 51.3831 12.0737C51.3831 12.6339 51.1636 13.1711 50.7729 13.5673C50.3822 13.9634 49.8523 14.1859 49.2998 14.1859C43.4567 14.1509 37.6958 15.582 32.5306 18.3519C27.3654 21.1219 22.9565 25.1445 19.6967 30.0613C16.4369 34.978 14.4276 40.6361 13.8478 46.5312C13.2681 52.4264 14.136 58.3754 16.3741 63.8479C18.6122 69.3204 22.151 74.1465 26.6751 77.896C31.1991 81.6454 36.5679 84.2017 42.3028 85.3369C48.0377 86.4723 53.9605 86.1512 59.5434 84.4026C65.1263 82.6541 70.1957 79.532 74.2997 75.3149C74.485 75.0927 74.7136 74.9115 74.9711 74.783C75.2287 74.6544 75.5097 74.5812 75.7964 74.568C76.0832 74.5547 76.3696 74.6017 76.6376 74.7059C76.9056 74.8103 77.1495 74.9696 77.3539 75.174C77.5583 75.3783 77.7189 75.6232 77.8256 75.8934C77.9322 76.1637 77.9826 76.4534 77.9736 76.7443C77.9646 77.0352 77.8964 77.321 77.7733 77.584C77.6501 77.8469 77.4747 78.0812 77.2581 78.2722C73.6151 82.0483 69.2663 85.0505 64.4659 87.1033C59.6654 89.156 54.5096 90.2181 49.2998 90.2277Z" fill="#FF4343" fill-opacity="1.000000" fill-rule="nonzero"/>
	<path id="Vector" d="M48.0497 63.613C47.7795 63.6218 47.5104 63.5739 47.2595 63.472C47.0085 63.3702 46.781 63.2169 46.5913 63.0216L29.9247 46.1234C29.7294 45.9271 29.5744 45.6935 29.4686 45.436C29.3629 45.1787 29.3084 44.9026 29.3084 44.6238C29.3084 44.345 29.3629 44.0688 29.4686 43.8114C29.5744 43.5541 29.7294 43.3204 29.9247 43.124C30.3211 42.7344 30.8516 42.5164 31.4038 42.5164C31.956 42.5164 32.4865 42.7344 32.883 43.124L48.0497 58.5436L82.008 24.1136C82.4003 23.7159 82.9324 23.4924 83.4872 23.4924C84.042 23.4924 84.574 23.7159 84.9663 24.1136C85.3586 24.5114 85.579 25.0508 85.579 25.6133C85.579 26.1759 85.3586 26.7153 84.9663 27.113L49.5497 63.0216C49.3508 63.2162 49.1158 63.3687 48.8583 63.4701C48.6007 63.5717 48.3259 63.6202 48.0497 63.613Z" fill="#FF4343" fill-opacity="1.000000" fill-rule="nonzero"/>
</svg>
