<svg width="39.000000" height="39.000000" viewBox="0 0 39 39" fill="none" xmlns="http://www.w3.org/2000/svg" xmlns:xlink="http://www.w3.org/1999/xlink">
	<desc>
			Created with Pixso.
	</desc>
	<defs/>
	<rect id="linkedin_icon" x="0.500000" y="0.500000" width="38.000000" height="38.000000" stroke="#C6CBCD" stroke-opacity="1.000000" stroke-width="1.000000"/>
	<path id="Vector" d="M27 10L11 10C10.7348 10 10.4804 10.1053 10.2929 10.2928C10.1053 10.4805 10 10.7347 10 11L10 27C10 27.2653 10.1053 27.5195 10.2929 27.7072C10.4804 27.8947 10.7348 28 11 28L27 28C27.2652 28 27.5196 27.8947 27.7071 27.7072C27.8947 27.5195 28 27.2653 28 27L28 11C28 10.7347 27.8947 10.4805 27.7071 10.2928C27.5196 10.1053 27.2652 10 27 10ZM15.339 25.337L12.667 25.337L12.667 16.7469L15.339 16.7469L15.339 25.337ZM14.003 15.574C13.5924 15.574 13.1987 15.4109 12.9084 15.1206C12.6181 14.8303 12.455 14.4365 12.455 14.026C12.455 13.6155 12.6181 13.2217 12.9084 12.9314C13.1987 12.6411 13.5924 12.478 14.003 12.478C14.4135 12.478 14.8073 12.6411 15.0976 12.9314C15.3879 13.2217 15.551 13.6155 15.551 14.026C15.551 14.4365 15.3879 14.8303 15.0976 15.1206C14.8073 15.4109 14.4135 15.574 14.003 15.574ZM25.338 25.337L22.669 25.337L22.669 21.16C22.669 20.1639 22.651 18.8831 21.281 18.8831C19.891 18.8831 19.68 19.969 19.68 21.09L19.68 25.338L17.013 25.338L17.013 16.748L19.573 16.748L19.573 17.922L19.61 17.922C19.965 17.2469 20.837 16.535 22.134 16.535C24.838 16.535 25.337 18.313 25.337 20.627L25.337 25.337L25.338 25.337Z" fill="#C6CBCD" fill-opacity="1.000000" fill-rule="nonzero"/>
</svg>
