<svg width="183.862305" height="25.745850" viewBox="0 0 183.862 25.7458" fill="none" xmlns="http://www.w3.org/2000/svg" xmlns:xlink="http://www.w3.org/1999/xlink">
	<desc>
			Created with Pixso.
	</desc>
	<defs/>
	<path id="ACTIVEBOX" d="M44.0032 21.5493C44.855 20.208 45.3206 18.6658 45.4001 16.9231L39.4547 16.9231C39.4092 18.3447 39.0231 19.3826 38.2963 20.0359C37.5694 20.6895 36.5189 21.0164 35.1447 21.0164C33.5206 21.0164 32.3735 20.4431 31.7034 19.2964C31.0447 18.1499 30.7153 16.241 30.7153 13.5693L30.7153 11.7981C30.7495 9.33301 31.1129 7.53857 31.8057 6.41504Q32.1959 5.78198 32.7543 5.38672L32.7548 5.38647Q33.6832 4.72949 35.0765 4.72949C36.5416 4.72949 37.6318 5.06201 38.3474 5.72705C39.0629 6.39209 39.4433 7.48706 39.4888 9.01196L45.4512 9.01196Q45.1661 5.8064 43.5106 3.65601L43.5106 3.65601L43.5099 3.65527L43.5099 3.65503Q42.9895 2.97925 42.3337 2.40771Q42.046 2.15527 41.7388 1.9292L41.7385 1.92896Q39.1171 0 35.0765 0Q32.4946 0 30.4212 1.02686L30.4211 1.02686L30.421 1.02686Q29.9774 1.24658 29.5569 1.51343Q28.9395 1.90088 28.3963 2.37329L28.3962 2.37354Q26.8411 3.72656 25.8943 5.77856Q24.6336 8.53027 24.6336 12.2107L24.6336 13.449Q24.6336 19.3137 27.4445 22.5298Q28.3074 23.5171 29.3661 24.2012Q31.7563 25.7458 35.1447 25.7458C37.1208 25.7458 38.8755 25.3789 40.4087 24.645C41.9532 23.9114 43.1514 22.8794 44.0032 21.5493ZM16.0135 20.7239L7.8194 20.7239L6.38837 25.4019L0 25.4019L9.09705 0.361084L14.7189 0.361084L23.884 25.4019L17.4616 25.4019L16.0135 20.7239ZM67.1888 5.02197L59.7442 5.02197L59.7442 25.4019L53.7646 25.4019L53.7646 5.02197L46.4564 5.02197L46.4564 0.361084L67.1888 0.361084L67.1888 5.02197ZM70.136 25.4019L76.0984 25.4019L76.0984 0.361084L70.136 0.361084L70.136 25.4019ZM89.8804 18.5913L94.8207 0.361084L101.499 0.361084L93.1512 25.4019L86.6095 25.4019L78.3301 0.361084L84.957 0.361084L89.8804 18.5913ZM109.301 14.7905L118.705 14.7905L118.705 10.3018L109.301 10.3018L109.301 5.02197L120.442 5.02197L120.442 0.361084L103.322 0.361084L103.322 25.4019L120.408 25.4019L120.408 20.7583L109.301 20.7583L109.301 14.7905ZM9.25037 16.0632L14.5826 16.0632L11.908 7.37817L9.25037 16.0632Z" fill="#656980" fill-opacity="1.000000" fill-rule="evenodd"/>
	<path id="ACTIVEBOX" d="M162.074 14.739C162.074 16.906 161.688 18.8264 160.915 20.5002C160.154 22.1628 159.064 23.4526 157.644 24.3699Q157.205 24.6504 156.738 24.8728Q154.942 25.7285 152.738 25.7285Q150.318 25.7285 148.432 24.7251Q147.052 23.9907 145.958 22.719Q145.867 22.6133 145.779 22.5049Q143.368 19.5298 143.368 14.6013L143.368 10.9897C143.368 8.83423 143.749 6.91943 144.51 5.24536Q145.412 3.28979 146.903 2.0332Q147.327 1.67627 147.798 1.37598Q148.343 1.02637 148.928 0.765625L148.928 0.765381Q150.646 0 152.704 0Q154.863 0 156.631 0.831787Q157.136 1.06982 157.61 1.37598Q158.097 1.68433 158.534 2.05273Q160.02 3.30835 160.915 5.2627Q162.074 7.77368 162.074 10.9897L162.074 14.739ZM123.454 25.3845L123.454 0.343994L129.978 0.343994Q133.982 0.343994 136.026 1.99512Q136.599 2.44946 137.013 3.01953Q138.087 4.49927 138.087 6.75903Q138.087 8.8562 137.113 10.293L137.113 10.2932Q137.033 10.4116 136.946 10.5254Q136.639 10.9277 136.264 11.2517Q135.246 12.1326 133.726 12.4343Q134.94 12.5942 135.946 13.1394Q136.887 13.6499 137.644 14.498Q138.543 15.4937 138.926 16.6584Q139.212 17.5261 139.212 18.488Q139.212 20.7576 138.174 22.3518Q137.749 23.0046 137.15 23.5444C135.788 24.7712 133.885 25.3845 131.443 25.3845L123.454 25.3845ZM182.38 0.343994L174.373 11.884L166.367 0.343994L165.208 0.343994L173.794 12.6064L164.885 25.3845L165.992 25.3845L174.373 13.3286L182.721 25.3845L183.862 25.3845L174.953 12.6064L183.539 0.343994L182.38 0.343994ZM161.154 10.9553C161.154 7.92847 160.393 5.50342 158.871 3.68042C157.349 1.84595 155.293 0.928711 152.704 0.928711Q150.399 0.928711 148.654 1.91772Q147.498 2.57324 146.588 3.66333Q144.305 6.38062 144.305 11.0757L144.305 14.739C144.305 16.7339 144.646 18.4995 145.328 20.0359Q146.166 21.8811 147.57 23.0437Q147.906 23.3223 148.275 23.5615Q148.566 23.7507 148.873 23.9109Q150.573 24.7998 152.738 24.7998Q155.156 24.7998 156.947 23.74Q158.033 23.0974 158.888 22.0654C160.398 20.2424 161.154 17.7544 161.154 14.6013L161.154 10.9553ZM124.374 12.0903L130.319 12.0903Q133.709 12.0903 135.43 10.7832Q135.787 10.5085 136.07 10.1716L136.07 10.1716Q137.15 8.88452 137.15 6.69019Q137.15 4.72998 136.209 3.47876Q134.589 1.32715 130.183 1.27271L124.374 1.27271L124.374 12.0903ZM124.374 13.019L124.374 24.4558L131.546 24.4558C133.647 24.4558 135.294 23.9343 136.486 22.8909Q137.006 22.4353 137.376 21.8801L137.376 21.8801Q138.292 20.5066 138.292 18.5225Q138.292 17.2498 137.792 16.2192Q137.36 15.3284 136.554 14.6184Q136.423 14.5017 136.285 14.3933Q134.597 13.0669 131.903 13.019L124.374 13.019Z" fill="#FFFFFF" fill-opacity="1.000000" fill-rule="evenodd"/>
</svg>
