<svg width="19.651978" height="15.962006" viewBox="0 0 19.652 15.962" fill="none" xmlns="http://www.w3.org/2000/svg" xmlns:xlink="http://www.w3.org/1999/xlink">
	<desc>
			Created with Pixso.
	</desc>
	<defs/>
	<path id="Vector" d="M17.633 3.978C17.646 4.153 17.646 4.327 17.646 4.50101C17.646 9.826 13.593 15.962 6.18597 15.962C3.90399 15.962 1.784 15.301 0 14.153C0.323975 14.19 0.635986 14.203 0.973022 14.203C2.78601 14.2074 4.54767 13.6011 5.974 12.482C5.13342 12.4668 4.3186 12.1895 3.64325 11.6887C2.9679 11.188 2.46576 10.4889 2.20697 9.689C2.45599 9.726 2.70599 9.75101 2.96802 9.75101C3.32898 9.75101 3.69202 9.701 4.02899 9.614C3.11676 9.42981 2.29645 8.93535 1.70764 8.21469C1.11877 7.49402 0.797668 6.59164 0.799011 5.661L0.799011 5.61101C1.336 5.91 1.95898 6.097 2.61902 6.12199C2.0661 5.75459 1.61273 5.25603 1.29932 4.67079C0.985962 4.08556 0.822327 3.43185 0.822998 2.76801C0.822998 2.02 1.02197 1.334 1.37097 0.736008C2.38312 1.98102 3.64551 2.99956 5.07635 3.72566C6.50714 4.45175 8.07458 4.86922 9.677 4.951C9.61499 4.651 9.57703 4.34 9.57703 4.028C9.57672 3.49896 9.68073 2.97505 9.88306 2.48624C10.0854 1.99742 10.3821 1.55327 10.7562 1.17918C11.1302 0.805099 11.5744 0.508408 12.0632 0.306076C12.5521 0.103745 13.076 -0.000259399 13.605 0C14.765 0 15.812 0.486008 16.548 1.272C17.4498 1.09761 18.3145 0.768417 19.104 0.298996C18.8034 1.22981 18.1738 2.0191 17.333 2.519C18.1328 2.42778 18.9144 2.21745 19.652 1.895C19.1011 2.6981 18.4185 3.40234 17.633 3.978Z" fill="#C6CBCD" fill-opacity="1.000000" fill-rule="nonzero"/>
</svg>
